/* XPM */
static char *_547690450788[] = {
/* columns rows colors chars-per-pixel */
"64 64 107 2 ",
"   c #6C765F",
".  c #6E7C5D",
"X  c #707F5D",
"o  c #666666",
"O  c #676965",
"+  c #696D63",
"@  c #6B7461",
"#  c #7EBF31",
"$  c #7FC032",
"%  c #76974F",
"&  c #77994F",
"*  c #789B4F",
"=  c #6F815A",
"-  c #718757",
";  c #738C56",
":  c #71835C",
">  c #748B59",
",  c #769255",
"<  c #799657",
"1  c #7A9B54",
"2  c #789458",
"3  c #7EAE47",
"4  c #7BA44C",
"5  c #7EAA4B",
"6  c #7FB341",
"7  c #7EA451",
"8  c #83BE3E",
"9  c #83C536",
"0  c #86C937",
"q  c #85C63A",
"w  c #88C73D",
"e  c #87C939",
"r  c #8ACC3C",
"t  c #8ED23E",
"y  c #90D63F",
"u  c #80AC4D",
"i  c #81B444",
"p  c #84BB44",
"a  c #83B44B",
"s  c #87BB4A",
"d  c #88BE4A",
"f  c #81AB50",
"g  c #83B050",
"h  c #87C144",
"j  c #89C543",
"k  c #8DCB44",
"l  c #8BC449",
"z  c #8EC949",
"x  c #91CF47",
"c  c #91CB4C",
"v  c #8FD440",
"b  c #91D541",
"n  c #93D942",
"m  c #94D04E",
"M  c #94CC53",
"N  c #97CC58",
"B  c #99CE5C",
"V  c #96D052",
"C  c #98D257",
"Z  c #9BD15C",
"A  c #9DCF63",
"S  c #9ED162",
"D  c #A1D465",
"F  c #A4D46B",
"G  c #A6D86D",
"H  c #A7D571",
"J  c #A9D674",
"K  c #AAD874",
"L  c #ADD77B",
"P  c #AED97C",
"I  c #B0DB7E",
"U  c #AFD780",
"Y  c #AFD880",
"T  c #B0D780",
"R  c #B3DB84",
"E  c #B6DC8A",
"W  c #B9DE8E",
"Q  c #BBDE93",
"!  c #BFDF98",
"~  c #BAE18D",
"^  c #BEE195",
"/  c #C2E29C",
"(  c #C6E3A3",
")  c #C8E6A6",
"_  c #CBE6AB",
"`  c #CDE9AD",
"'  c #CEE7B0",
"]  c #CFE8B1",
"[  c #D1EAB5",
"{  c #D5EBBC",
"}  c #DBEEC4",
"|  c #DEEFC9",
" . c #DDF0C7",
".. c #DFF0CA",
"X. c #E0EFCD",
"o. c #E0F0CE",
"O. c #E4F2D3",
"+. c #E7F3D8",
"@. c #EAF5DD",
"#. c #EEF6E3",
"$. c #EFF8E6",
"%. c #F0F7E6",
"&. c #F0F8E7",
"*. c #F3F9EC",
"=. c #F6FBF2",
"-. c #F9FCF5",
";. c #FFFFFF",
/* pixels */
";.;.;.;.;.;.;.;.;.;.;.;.;.;.;.;.;.;.;.;.;.;.;.;.;.;.;.;.;.;.;.;.;.;.;.;.;.;.;.;.;.;.;.;.;.;.;.;.;.;.;.;.;.;.;.;.;.;.;.;.;.;.;.;.",
";.;.;.;.;.;.;.;.;.;.;.;.;.;.;.;.;.;.;.;.;.;.;.;.;.;.;.;.;.;.;.;.;.;.;.;.;.;.;.;.;.;.;.;.;.;.;.;.;.;.;.;.;.;.;.;.;.;.;.;.;.;.;.;.",
";.;.;.;.;.;.;.;.;.;.;.;.;.;.;.;.;.;.;.;.;.;.;.;.;.;.;.;.;.;.;.;.;.;.;.;.;.-.;.;.;.;.;.;.;.;.;.;.;.;.;.;.;.;.;.;.;.;.;.;.;.;.;.;.",
";.;.;.;.;.;.;.;.;.;.;.;.;.;.;.;.;.;.;.;.-.;.;.;.;.;.;.;.;.;.;.;.;.;.;.;.O.T ( &.;.;.;.;.;.;.;.;.;.;.;.;.;.;.;.;.;.;.;.;.;.;.;.;.",
";.;.;.;.;.;.;.;.;.;.;.;.;.;.;.;.;.;.;.-.R L R O.=.;.;.;.;.;.;.;.;.;.=.{ N 8 # A #.;.=.O.=.;.;.;.;.;.;.;.;.;.;.;.;.;.;.;.;.;.;.;.",
";.;.;.;.;.;.;.;.;.;.;.;.;.;.;.;.;.;.;./ 8 # # w Q ;.;.;.;.;.;.;.;.;./ j M N A L +.#.A 8 J &.;.;.;.;.;.;.;.;.;.;.;.;.;.;.;.;.;.;.",
";.;.;.;.;.;.;.;.;.;.;.;.;.;.;.;.;.;.-.F # j M F { ;.;.;.;.;.;.;.;.;.O.T F B J &.;.&.U l # R -.;.;.;.;.;.;.;.;.;.;.;.;.;.;.;.;.;.",
";.;.;.;.;.;.;.;.;.;.;.;.;.;.;.;.;.;.;.+.[ O.*.-.;.;.;.;.;.;.;.;.;.;.;.;.-.=.=.;.;.;.;.#.) ( =.;.;.;.;.;.;.;.;.;.;.;.;.;.;.;.;.;.",
";.;.;.;.;.;.;.;.;.;.;.;.;.;.;.;.;.;.;.;.;.;.;.;.;.O.{ ;.;.;.;.;.;.;.;.;.;.;.;.;.;.;.;.;.;.=.' =.;.;.;.;.;.;.;.;.;.;.;.;.;.;.;.;.",
";.;.;.;.;.;.;.;.;.;.;.;.;.;.;.;.;.;.;.;.;.;.;.;.;.` _ =.;.;.;.;.;.;.;.;.+.;.;.;.;.;.;.;.;.{ _ ;.;.;.;.;.;.;.;.;.;.;.;.;.;.;.;.;.",
";.;.;.;.;.;.;.;.;.;.;.;.;.;.;.;.;.;.;.;.;.;.;.;.=.[ ~ +.;.;.;.;.;.;.;.-.Q O.;.;.;.;.-.-.*.R #.;.;.*.&.#.O.$.;.;.;.;.;.;.;.;.;.;.",
";.;.;.;.;.;.;.;.;.;.;.;.;.;.;.;.;.;.;.;.;.;.;.;.#.K P _ ;.;.;.;.;.;.-.{ P } ;.;.%.) R R / { ;.;.-.H A A q L *.;.;.;.;.;.;.;.;.;.",
";.;.;.;.;.;.;.;.;.;.;.;.;.;.;.;.;.;.;.;.;.-.;.-.o.I E P %.;.;.;.;.;.o.~ Z [ -.;.-.=.&.{ ( ^ &.;.-.Q p N l 8 _ ;.;.;.;.;.;.;.;.;.",
";.;.;.;.;.;.;.;.;.;.;.;.;.;.;.;.;.;.;.;.;.( ) K x M Z r ^ ` ^ E I I K I K ( #.;.;.;.#.S / ` E #.;.;.) c B N R ;.;.;.;.;.;.;.;.;.",
";.;.;.;.;.;.;.;.;.;.;.;.;.;.;.;.;.;.;.;.*.P b w k k r r 0 r r 0 0 0 0 e w k G ) &.*.F S { ) E @.;.;.;.X.( #.*.;.;.;.;.;.;.;.;.;.",
";.;.;.;.;.;.;.;.;.;.;.;.;.;.;.;.;.;.;.;.=.} D k k r e r r r r r r e r r r e 0 e C D w ] ( ^ @.=.;.;.-.;.;.;.;.;.;.;.;.;.;.;.;.;.",
";.;.;.;.-.+.O.#.-.;.;.;.;.;.;.;.;.;.;.;.-.[ m r r r r r r r r r r r r r r e r e 0 0 k K E {  .+.+.*.[ #.;.;.;.;.;.;.;.;.;.;.;.;.",
";.;.;.;.' / Q ( | ;.;.;.;. .P ^ &.;.;.&.I r r r r r r r r t r r r r t r r r e e r e e 9 G @. .( &.;.+.R &.;.*.&.-.;.;.;.;.;.;.;.",
";.;.;.@.! M # N / %.;.;.@.M 9 c / ;.+.G 0 r r r r r r r y r t r t t r r t r r r e r e e 0 N R  .;.;.;.| ( ( ! { -.;.;.;.;.;.;.;.",
";.;.;.@.! w # j / $.;.;.| q V I ( +.D r r r t r t r y r r t t t t r t r t r t r r e r e 0 0 Z O.;.-.| Q Q $.-.$.+.;.;.;.;.;.;.;.",
";.;.;.&._ A l J [ -.;.;.*.G Z ~ / D r r r r r t k t t t y r t t t t t t t r r r r r r r e e 9 D O.E M E ^ ;.;.( l | ;.;.;.;.;.;.",
";.;.;.;.+.( ! ' #.;.;.;.-.#.{  .I 0 r r r t t t r y t y y y y k t t t t t t t r r r r e r q e q k k [ {  .;.;.O.j } ;.;.;.;.;.;.",
";.;.;.;.;.*.=.*.;.;.;.*.~ P *.{ t r r r t r t t r y y y y r b b y t t t t t t r t r r r e e r 0 9 E ;.@.-.;.;.=.! %.;.;.;.;.;.;.",
";.;.;.;.;.;.;.;.;.-.-.O.k r ` D r r r t r t t t y t y b b b b b b y y t t t t t t t r r r r e q 9 N @.;.;.;.;.;.;.;.;.;.;.;.;.;.",
";.;.;.;.;.;.;.;.;.[ D G G ) ~ r r r r t t t t t b y b b n n b b b b b b v y t t t r r r r r e 0 e 9 / ;.;.;.;.;.;.;.;.;.;.;.;.;.",
";.;.;.;.;.;.;.;.;.*./ M k / C e r r t t t t y v b b b b n n n b b b b b v t t t t r t r r r r 0 e 9 C _ } -.-.;.;.;.;.;.;.;.;.;.",
";.;.;.;.;.;.;.;.;.;.*.}  .) e t r t t t t y y y b n b b n n n n n b n b b b y y t t t r r r r r e q e ^ J Q +.;.;.;.;.;.;.;.;.;.",
";.;.;.;.;.;.;.;.;.*.D M  .~ 0 e r r r t t t v b b b n n n n n n n n n b v b b t t t t t r r r 0 r 9 q S B D } -.;.;.;.;.;.;.;.;.",
";.;.;.;.;.;.;.;.;.&.Z k ^ V e t r t r t y b b b n n n n n n n n n z 1 2 1 < a v y h 4 p w w e e e q 9 c J G { =.;.;.;.;.;.;.;.;.",
";.;.;.;.;.;.;.;.;.;.@.o. .k e e r t t t y t k d a f 2 2 g m n n z X > k b u @ u t p + , 3 @ 6 3 i 0 8 j J F ' =.;.;.;.;.;.;.;.;.",
";.;.;.;.;.;.;.;.;.;.;.;.[ r r t r r j j k v j @ @ d s 2 + > n n 1 + l n b b 1 @ j k @ - a O - . 6 8 - 6 D B [ #.;.;.;.;.;.;.;.;.",
";.;.;.;.;.;.;.;.*. ...;.) r r e 5 , 4 1 = s v X @ b n n 1 + c c @ : n n n b a O u t ,   p   O & r % ; 9 F J } *.;.;.;.;.;.;.;.;.",
";.;.;.;.;.#.} ( Q G ~ ;./ 0 q % X p t t d p b 1 + l n n f @ c l O > n n n v a O 7 t 7 + p ; + p 8 . # 9 P _ @.;.;.;.;.;.;.;.;.;.",
";.;.;.;.;.] L L K P R / Z 0 * O u r t r 5 > k a O g n b : > n c @ : n n n n a O 3 y a + 3 ; @ 8 % % q 9 E ;.;.;.;.;.;.;.;.;.;.;.",
";.;.;.;.;.] L J J E P  .~ 0 X   j r t t > o a h + f n 2 X c n n 2 + l n b b 2 @ h t p @ = + + * . 8 9 9 Q ;.;.;.;.;.;.;.;.;.;.;.",
";.;.;.;.;._ F R H E G #.` e   . w t t t s O 1 k @ : < X @ g n n z X > z k u @ 7 t t j @ O ; + + & q q 9 F ] } +.;.;.;.;.;.;.;.;.",
";.;.;.;.;.) F Q ~ }  .*.{ r - + p t r t k . ; k @ @ l b > @ u b n k 1 > > > a t t t w . = 6 @   9 q q 9 9 G E Y $.;.;.;.;.;.;.;.",
";.;.;.;.;.$.#.-.;.| / ` o.k 4 o - w t t t > : k > @ z n x a l b b b b k k b y t t t r i i w ; 4 e q 9 9 9 Y Q W *.;.;.;.;.;.;.;.",
";.;.;.;.;.;.;.&./ H R K / m q , O - i p 4 ; p t h j b b b n b b b b b y y t y t t r r t r r q q e 0 9 w B R Q ) -.;.;.;.;.;.;.;.",
";.;.;.;.;.;.;.#.H R P G } / 0 r 5 : : - 1 j v v b y v b b b b b b b b y t y t t t t r r r e r e 9 q q 9 z R / ..-.;.;.;.;.;.;.;.",
";.;.;.;.;.;.;.*.L P H / { } k r r r w r t t t t t t t y t y b b v y t y t t t t r t r r e r e e 9 q q $ A E U Q | ;.;.;.;.;.;.;.",
";.;.;.;.;.;.;.;./ ( } [ R / Z 0 e r r r r t t r t t t y y y t y v t t t t t t r r r r r r e q 9 q 9 w w R ! E T +.;.;.;.;.;.;.;.",
";.;.;.;.;.;.;.;.-.;.+.J G ^ ` r r e r r r r r t t t t t t t t y t t t t t r t r r r e e r e e q 9 9 Z R Q Q L R -.;.;.;.;.;.;.;.",
";.;.;.;.;.O.+.*.;.;.&.R _ %.=.K 9 r r r r t r r r t r t t t t r t t t t t r r t r r e r e e 9 0 9 9 j P Q } ' | ;.;.;.;.;.;.;.;.",
";.;.;.;.;.L A F / ;.-.$.;.;.;. .c e r e r r r t t r r t r t r t r t r r t r r r e r e e e e q 9 w w F E R } ;.;.;.;.;.;.;.;.;.;.",
";.;.;.;.;.L 9 A z +.;.;.;.;.;.;.) e e e r e r e r r t r r t r r r r t r r r r e r e e q e 9 9 9 R { W P R *.;.;.;.;.;.;.;.;.;.;.",
";.;.;.;.;./ # l z R ;.;.;.;.;.+.*.~ 0 e r e e r r r r r r t r t r r r r r e r r e e e 0 q 9 9 9 S +.=.} O.;.;.;.;.;.;.;.;.;.;.;.",
";.;.;.;.;.+.! J M M *.;.;.;.O.Z  .+.F e e e r e r e r e r r r r r r r e e r e e e e e q 9 q q 9 $ c [ -.;.;.;.;.;.;.;.;.;.;.;.;.",
";.;.;.;.;.;.;.-.} { ;.;.;.;.&.B J { @.E w 0 r e r e r e r e r w e r r r r e e e e e 9 0 9 l Q M $ q q ! =.;.;.;.;.;.;.;.;.;.;.;.",
";.;.;.;.;.;.;.;.;.;.;.;.;.;.;.[ _ -.;.=.I k 9 e 9 r e e e r e e e r 9 e 9 e q e 9 9 9 9 9 8 R | S $ # # H %.;.;.;.;.;.;.;.;.;.;.",
";.;.;.;.;.;.;.;.;.;.;.;.;.;.;.;.;.;.-.Q E { Z q 9 e q e e e e e e q e q q 9 9 9 q 9 z j 9 B R [ %.R q # B R } ;.;.;.;.;.;.;.;.;.",
";.;.;.;.;.;.;.;.;.;.;.;.;.;.;.;.;.;.{ q K P ` { G k 9 9 0 9 q q e 9 e 9 0 9 9 w 9 9 B L S Q R E O.-.! N T T W -.;.;.;.;.;.;.;.;.",
";.;.;.;.;.;.;.;.;.;.;.;.;.;.;.;.;.;.L c A q } ;.-.} G S k k q 9 9 9 q r z c J [ N M P _ Q E U E ! -.-.} L R } ;.;.;.;.;.;.;.;.;.",
";.;.;.;.;.;.;.;.;.;.;.;.;.;.;.;.;.=.T _ c L -.;.=.R ( } R [ J ( _ ` / F Z A J #.( J R R } T U ! #.;.;.;.+.| ;.;.;.;.;.;.;.;.;.;.",
";.;.;.;.;.;.;.;.;.;.;.;.;.;.;.;.;.;.*.O.U $.;.;.{ 9 E B q R N O.;.} ) J F R { ;.$.R E _ *.} ' =.;.;.;.;.;.;.;.;.;.;.;.;.;.;.;.;.",
";.;.;.;.;.;.;.;.;.;.;.;.;.;.;.;.;.-.&.=.-.+.*.;.W z X.J M F w } ;.| +.| { $.;.;.;.+.#.;.;.*.-.;.;.;.;.;.;.;.;.;.;.;.;.;.;.;.;.;.",
";.;.;.;.;.;.;.;.;.;.;.;.;.;.;.;.;.O.B | ;.' +.;.R / ;.*.&._ l @.;.;.;.;.;.;.;.;.;.;.-.X.R M T -.;.;.;.;.;.;.;.;.;.;.;.;.;.;.;.;.",
";.;.;.;.;.;.;.;.;.;.;.;.;.;.;.;.;.*./ #.;.;.;.;.+.-.;.;.;.| Q -.;.;.;.;.;.;.;.;.;.#.L h # # U -.;.;.;.;.;.;.;.;.;.;.;.;.;.;.;.;.",
";.;.;.;.;.;.;.;.;.;.;.;.;.;.;.;.;.;.;.;.;.;.;.;.;.;.;.;.;.-.=.;.;.;.;.#.( L | ;.;.X.M h j M X.;.;.;.;.;.;.;.;.;.;.;.;.;.;.;.;.;.",
";.;.;.;.;.;.;.;.;.;.;.;.;.;.;.;.;.;.;.;.;.;.;.;.;.;.;.;.;.;.;.;.;.;.;.[ M M +.;.;.;.&.+.O.#.;.;.;.;.;.;.;.;.;.;.;.;.;.;.;.;.;.;.",
";.;.;.;.;.;.;.;.;.;.;.;.;.;.;.;.;.;.;.;.;.;.;.;.;.;.;.;.;.;.;.;.;.;.;.;.*.%.;.;.;.;.;.;.;.;.;.;.;.;.;.;.;.;.;.;.;.;.;.;.;.;.;.;.",
";.;.;.;.;.;.;.;.;.;.;.;.;.;.;.;.;.;.;.;.;.;.;.;.;.;.;.;.;.;.;.;.;.;.;.;.;.;.;.;.;.;.;.;.;.;.;.;.;.;.;.;.;.;.;.;.;.;.;.;.;.;.;.;.",
";.;.;.;.;.;.;.;.;.;.;.;.;.;.;.;.;.;.;.;.;.;.;.;.;.;.;.;.;.;.;.;.;.;.;.;.;.;.;.;.;.;.;.;.;.;.;.;.;.;.;.;.;.;.;.;.;.;.;.;.;.;.;.;.",
";.;.;.;.;.;.;.;.;.;.;.;.;.;.;.;.;.;.;.;.;.;.;.;.;.;.;.;.;.;.;.;.;.;.;.;.;.;.;.;.;.;.;.;.;.;.;.;.;.;.;.;.;.;.;.;.;.;.;.;.;.;.;.;."
};
