/* XPM */
static char *_547690440939[] = {
/* columns rows colors chars-per-pixel */
"32 32 85 1 ",
"  c #6D7B5D",
". c #789D4C",
"X c #6F8556",
"o c #728B56",
"O c #758D5A",
"+ c #769254",
"@ c #789656",
"# c #7A9B54",
"$ c #779059",
"% c #7DAB46",
"& c #7BA34D",
"* c #7FAC4A",
"= c #7DA352",
"- c #7FA850",
"; c #83BC3F",
": c #84C636",
"> c #85C837",
", c #85C63A",
"< c #86C939",
"1 c #8ACD3C",
"2 c #8DD23E",
"3 c #81AE4D",
"4 c #82B645",
"5 c #87BD47",
"6 c #83B44B",
"7 c #87B94D",
"8 c #88BD4B",
"9 c #81AA50",
"0 c #8AC543",
"q c #8CCB43",
"w c #8AC24A",
"e c #8EC84A",
"r c #93CE4D",
"t c #8FD440",
"y c #91D542",
"u c #93D942",
"i c #94D04E",
"p c #95CD53",
"a c #98CF56",
"s c #96CB58",
"d c #9ACE5D",
"f c #95D051",
"g c #98D057",
"h c #9BD25B",
"j c #9ECF64",
"k c #9FD165",
"l c #A1D466",
"z c #A4D46C",
"x c #A6D371",
"c c #A9D575",
"v c #AAD973",
"b c #ADD77B",
"n c #AEDA7C",
"m c #B1DC7E",
"M c #B3DB84",
"N c #B6DC8A",
"B c #B9DD8E",
"V c #BCDE94",
"C c #BBE08E",
"Z c #BEE295",
"A c #BFE098",
"S c #C2E29C",
"D c #C6E3A3",
"F c #C9E5A7",
"G c #CBE6AB",
"H c #CFE7B3",
"J c #CFE8B2",
"K c #D2EAB6",
"L c #D5EBBB",
"P c #D8ECBF",
"I c #D7EBC0",
"U c #DAEDC3",
"Y c #DEEFC9",
"T c #DFF0CB",
"R c #E1F0CE",
"E c #E4F2D4",
"W c #E7F3D9",
"Q c #EAF5DC",
"! c #EEF7E3",
"~ c #EFF8E6",
"^ c #F0F7E7",
"/ c #F2F9EB",
"( c #F6FBF1",
") c #F9FCF5",
"_ c #FFFFFF",
/* pixels */
"________________________________",
"__________)_______RE____________",
"_________WlbQ____GpxQDY_________",
"_________RMD^____RGR)FV(________",
"____________QE____)___!W________",
"____________UF___QK_~YL(ESD)____",
"__________!LmzPUKVN/)GSEQzsY____",
"__________Yf111111qzSnFT_^Q)____",
"__YK/_/U((St1111111>>rST^R/(____",
"_/ceU_ZgLM11221221211<qS)PKE^___",
"_)FMQ_USv1122222222111>rMAQES___",
"__)))ECSq12222yt2222111>s!_(!___",
"____^Mnh1222yuuuuy22111<1D^_____",
"____(SZq122yuuuuutqt2111,aM!____",
"____(Fn1222qw7eu79630&%4;0zR____",
"____^/m<445&#8$wOey@7ooo%*zR____",
"__!SMFl.*0*3#r@8Oyy@6@o@&;G)____",
"__EcnGzX0t$-O9#y#78@1#  %:D^____",
"__!KLLMo*2*=O830y66024&+;:hV/___",
"___/BMC4+&300yuyyytt211,::lG)___",
"___(SSSi<,1t222ytt2211<<>0bB~___",
"__(~(LGZ<11122222111111::jSG)___",
"__PdJ)_/k>11121111111<:,zMK_____",
"__Ezc/_RGp<111111111<,,,xY(_____",
"___)Q__PLYa:>11<1<<<,:0besY_____",
"_______)_FMma,<:::,,,akVKkbE____",
"________(Nz~LnlzvhpVbNSV!~H^____",
"_________ET)BNzV^HG~EYEW________",
"________~I//Y/UK__(_)DdI________",
"_______________)_~V~/SV/________",
"__________________^_____________",
"________________________________"
};
