/* XPM */
static char *_547690423585[] = {
/* columns rows colors chars-per-pixel */
"16 16 194 2 ",
"   c white",
".  c #FDFEFC",
"X  c #F5FAEF",
"o  c #FDFEFD",
"O  c #FAFCF7",
"+  c #EAF5DE",
"@  c #FAFCF6",
"#  c #FEFEFD",
"$  c white",
"%  c #EFF7E6",
"&  c #C6E3A3",
"*  c #F3F9EC",
"=  c #EAF5DE",
"-  c #CAE5AA",
";  c #DFEFCC",
":  c #E7F3D8",
">  c white",
",  c white",
"<  c #FDFEFC",
"1  c #F8FCF3",
"2  c #E2F1D0",
"3  c #FBFDF8",
"4  c #F6FBF0",
"5  c #F1F8E9",
"6  c #F1F8E8",
"7  c #E6F3D7",
"8  c #E7F3D9",
"9  c #EBF5DE",
"0  c white",
"q  c #FDFEFC",
"w  c #FFFFFE",
"e  c #FFFFFE",
"r  c #FEFFFE",
"t  c #CFE9B0",
"y  c #9FD562",
"u  c #B2DD80",
"i  c #ABDA74",
"p  c #B9E08C",
"a  c #C9E6A8",
"s  c #D6ECBD",
"d  c #DBEDC6",
"f  c #DAEDC4",
"g  c #F7FBF2",
"h  c #C7E3A5",
"j  c #EDF6E1",
"k  c #D5ECBB",
"l  c #D5ECBA",
"z  c #9CD45B",
"x  c #89CD39",
"c  c #89CE39",
"v  c #89CD39",
"b  c #89CC3A",
"n  c #8DCC44",
"m  c #BCE091",
"M  c #E5F3D6",
"N  c #E8F4DA",
"B  c #F8FCF5",
"V  c #FBFDF8",
"C  c #DDEEC9",
"Z  c #E9F5DB",
"A  c #C1E399",
"S  c #97D251",
"D  c #8BCF3B",
"F  c #8ED23F",
"G  c #8FD33F",
"H  c #8ED33F",
"J  c #8DD13D",
"K  c #89CD3A",
"L  c #8CCC42",
"P  c #C0E299",
"I  c #EDF6E2",
"U  c #F0F7E7",
"Y  c #DBEEC4",
"T  c #A4D769",
"R  c #8BCF3C",
"E  c #8FD33F",
"W  c #91D541",
"Q  c #93D842",
"!  c #90D243",
"~  c #8DCF41",
"^  c #8BCD3E",
"/  c #87CA39",
"(  c #9ED361",
")  c #E2F1D1",
"_  c white",
"`  c #FBFDF9",
"'  c #E2F2D0",
"]  c #9ED261",
"[  c #87C440",
"{  c #88C047",
"}  c #86B64D",
"|  c #88BC4C",
" . c #86B84D",
".. c #85B84A",
"X. c #7FAA4C",
"o. c #7AA24C",
"O. c #83B845",
"+. c #C5E3A2",
"@. c #FFFFFE",
"#. c white",
"$. c #D5EBBC",
"%. c #C2E39A",
"&. c #92B965",
"*. c #83B844",
"=. c #7EA650",
"-. c #7EA452",
";. c #83AE50",
":. c #84B34E",
">. c #85B64B",
",. c #7DA64E",
"<. c #718857",
"1. c #83B349",
"2. c #D4EBB8",
"3. c #FEFFFE",
"4. c #E9F4DC",
"5. c #C6E5A1",
"6. c #98BF6B",
"7. c #7FAE47",
"8. c #81B04B",
"9. c #86B94A",
"0. c #8CC946",
"q. c #8CCA45",
"w. c #8AC743",
"e. c #88C640",
"r. c #7FB145",
"t. c #85C23C",
"y. c #B6DC88",
"u. c #F7FBF3",
"i. c #F1F8E9",
"p. c #D5EBBB",
"a. c #B8DE8B",
"s. c #88C641",
"d. c #8BCD3D",
"f. c #8ED33E",
"g. c #8FD33F",
"h. c #8ED33E",
"j. c #8CD03D",
"k. c #8ACD3B",
"l. c #86CA38",
"z. c #90CB4B",
"x. c #C0E19B",
"c. c #F7FBF3",
"v. c #FFFFFE",
"b. c #CCE6AD",
"n. c #DBEDC6",
"m. c #EDF7E1",
"M. c #A7D86E",
"N. c #88CB3A",
"B. c #89CD3A",
"V. c #8BCE3C",
"C. c #8ACD3C",
"Z. c #89CC3A",
"A. c #86C938",
"S. c #88C83D",
"D. c #B0D980",
"F. c #EDF6E3",
"G. c #F8FBF4",
"H. c #F6FBF1",
"J. c #F6FBF1",
"K. c #D6ECBD",
"L. c #A3D568",
"P. c #90CD4A",
"I. c #88CA3B",
"U. c #86C939",
"Y. c #88C83C",
"T. c #8BC943",
"R. c #A4D36C",
"E. c #B1D982",
"W. c #DCEDC7",
"Q. c #E2F1D0",
"!. c #D6EBBD",
"~. c #BFE198",
"^. c #ADD97A",
"/. c #BEE195",
"(. c #C2E29D",
"). c #C8E4A6",
"_. c #CFE7B2",
"`. c #EEF7E4",
"'. c #EEF7E5",
"]. c white",
"[. c white",
"{. c #F5FAEF",
"}. c #F7FBF2",
"|. c #F0F8E7",
" X c #EAF5DE",
".X c #F4FAEE",
"XX c #EDF6E3",
"oX c #DFEFCB",
"OX c #D3E9B9",
"+X c white",
"@X c #FCFDFA",
"#X c #F7FBF3",
"$X c #FCFDFA",
"%X c #FCFDFA",
/* pixels */
"        . X o   O + @ #         ",
"    $   % & *   = - ; :         ",
"    > , < 1 2 3 4 5 6 7 8 9     ",
"0 q w e r t y u i p a s d f     ",
"g h j k l z x c v b n m M N B   ",
"V C Z A S D F G H J K L P I U   ",
"    Y T R E W Q ! ~ ^ / ( ) _   ",
"  ` ' ] [ { } |  ...X.o.O.+.@.  ",
"#.$.%.&.*.=.-.;.:.>.,.<.1.2.3.  ",
"  4.5.6.7.8.9.0.q.w.e.r.t.y.u.  ",
"  i.p.a.s.d.f.g.h.j.k.l.z.x.c.  ",
"v.b.n.m.M.N.B.V.C.Z.A.S.D.F.    ",
"  G.H.J.K.L.P.I.U.Y.T.R.E.W.    ",
"        Q.!.~.^./.(.)._.`.'.].  ",
"      [.{.}.|. X.XXXoXOX+X      ",
"                @X#X$X%X        "
};
